<svg viewBox="0 0 400 80" xmlns="http://www.w3.org/2000/svg"><svg viewBox="0 0 400 80" xmlns="http://www.w3.org/2000/svg"><svg version="1.1" id="Layer_1" xmlns="http://www.w3.org/2000/svg" xmlns:xlink="http://www.w3.org/1999/xlink" x="0px" y="0px"

  <style>

    .text { fill: #2563eb; font-family: Inter, system-ui, sans-serif; font-weight: 800; font-size: 48px; }  <style>	 width="100%" viewBox="0 0 694 177" enable-background="new 0 0 694 177" xml:space="preserve">

    .snout { fill: none; stroke: #2563eb; stroke-width: 4; stroke-linejoin: round; }

    .nostril { fill: #2563eb; }    .text { fill: #2563eb; font-family: Inter, system-ui, sans-serif; font-weight: 800; font-size: 48px; }<path fill="#FDFEFF" opacity="1.000000" stroke="none" 

  </style>

  <text x="10" y="55" class="text">rndpig</text>    .snout { fill: none; stroke: #2563eb; stroke-width: 4; stroke-linejoin: round; }	d="

  <ellipse class="snout" cx="320" cy="40" rx="30" ry="20"/>

  <circle class="nostril" cx="308" cy="40" r="6"/>    .nostril { fill: #2563eb; }M456.000000,178.000000 

  <circle class="nostril" cx="332" cy="40" r="6"/>

</svg>  </style>	C304.043457,178.000000 152.586899,178.000000 1.065179,178.000000 

  <text x="10" y="55" class="text">rndpig</text>	C1.065179,119.060440 1.065179,60.120781 1.065179,1.090563 

  <ellipse class="snout" cx="320" cy="40" rx="30" ry="20"/>	C232.333313,1.090563 463.666656,1.090563 694.965576,1.090563 

  <circle class="nostril" cx="308" cy="40" r="6"/>	C694.965576,60.079796 694.965576,119.039909 694.965576,178.000000 

  <circle class="nostril" cx="332" cy="40" r="6"/>	C615.454041,178.000000 535.977051,178.000000 456.000000,178.000000 

</svg>M54.883427,66.960167 
	C54.883427,66.960167 54.930561,66.801453 55.669426,66.773438 
	C57.771896,66.151283 59.874367,65.529129 62.824947,65.082169 
	C64.553444,65.049194 66.281944,65.016220 68.616852,65.386635 
	C69.795578,64.735138 72.068008,63.847614 71.986122,63.468159 
	C71.024231,59.010864 74.745033,53.824158 69.299484,49.740604 
	C67.869507,49.572495 66.439529,49.404381 64.235085,49.040096 
	C60.809353,50.352360 57.383621,51.664619 53.996166,53.003838 
	C53.996166,53.003838 53.980293,52.959923 53.324425,53.067513 
	C52.197083,54.363895 51.069740,55.660278 49.998192,57.000584 
	C49.998192,57.000584 49.953434,56.945744 49.361687,57.290848 
	C48.604603,58.184799 47.847523,59.078747 46.180748,61.046844 
	C46.180748,56.519016 46.180748,53.446289 46.180748,50.185066 
	C40.084671,50.185066 34.543533,50.185066 29.132893,50.185066 
	C28.882380,50.839878 28.663837,51.145035 28.663223,51.450626 
	C28.615236,75.392265 28.574564,99.333954 28.612730,123.275505 
	C28.613615,123.830811 29.517405,124.384674 30.730621,125.378105 
	C35.159603,125.562683 39.588585,125.747269 44.564644,125.973770 
	C44.770794,125.687195 44.976944,125.400612 45.086639,125.119553 
	C45.086639,125.119553 45.131969,125.204872 45.776363,125.270485 
	C46.108135,123.878906 46.719379,122.489037 46.727932,121.095474 
	C46.803505,108.776703 46.938992,96.454002 46.697151,84.139526 
	C46.587360,78.548943 47.845936,73.634811 51.038963,69.093330 
	C51.038963,69.093330 51.255486,69.295563 51.855015,69.133827 
	C52.813915,68.387177 53.772816,67.640518 54.883427,66.960167 
M131.494324,68.104370 
	C132.021240,68.654617 132.548157,69.204872 133.149185,70.291077 
	C133.387558,70.545158 133.625916,70.799240 133.986984,71.850639 
	C134.582077,76.269348 135.548325,80.675636 135.696823,85.109299 
	C136.030228,95.063446 135.957550,105.031189 135.847214,115.834641 
	C135.918610,117.556419 135.989990,119.278198 135.842438,121.795250 
	C135.437836,125.810867 137.913574,126.249565 141.894562,126.088707 
	C144.559601,126.097641 147.313705,126.511108 149.853699,125.951981 
	C151.208786,125.653687 153.182373,123.686806 153.196701,122.453499 
	C153.386368,106.132195 153.565399,89.799980 153.145218,73.486000 
	C152.845779,61.859432 145.977341,53.228012 135.892838,50.288170 
	C124.004776,46.822544 113.512154,50.377560 106.451469,60.226562 
	C105.880753,61.022659 105.112534,61.677170 103.607376,63.279915 
	C103.607376,58.130394 103.607376,54.206394 103.607376,50.218620 
	C97.882332,50.218620 92.643616,50.218620 86.914680,50.218620 
	C86.914680,52.330887 86.914711,54.128372 86.914665,55.925858 
	C86.914162,75.248848 86.814758,94.572502 86.945580,113.894600 
	C87.043617,128.373688 84.562492,125.793839 99.361305,126.163818 
	C103.332481,126.263092 104.984550,124.814186 104.917709,120.647049 
	C104.722710,108.490013 104.854263,96.327827 104.846054,84.167679 
	C104.836205,69.574791 109.518890,64.669662 124.622849,64.431931 
	C126.897049,65.469902 129.171249,66.507866 131.787598,66.945137 
	C131.668015,67.142906 131.548447,67.340675 131.494324,68.104370 
M224.517624,27.058485 
	C224.571457,29.041714 224.625275,31.024942 224.394211,33.899387 
	C224.394211,43.023663 224.394211,52.147934 224.394211,60.299934 
	C219.467010,56.804943 215.262131,52.400547 210.126877,50.466785 
	C198.338623,46.027725 183.826752,51.261265 177.441635,62.211815 
	C167.522339,79.223518 167.659103,96.795555 177.108231,114.025246 
	C186.006042,130.249695 213.895020,133.017258 222.632111,116.198219 
	C222.884109,115.713112 223.489212,115.411438 224.527847,114.498375 
	C224.739914,118.455933 224.913513,121.695633 225.393707,125.756790 
	C230.945526,125.756790 236.497345,125.756790 242.220123,125.756790 
	C242.220123,92.837616 242.230881,60.383110 242.165436,27.928764 
	C242.163574,27.004503 241.351013,26.081879 240.276810,25.000530 
	C239.842987,25.047722 239.409149,25.094913 238.058304,24.979351 
	C233.675629,25.127123 229.292969,25.274897 224.566360,25.465654 
	C224.528580,25.578663 224.430527,25.716570 224.464905,25.799782 
	C224.551437,26.009317 224.697708,26.194183 224.517624,27.058485 
M671.193420,85.994019 
	C669.138550,62.627930 656.777222,45.733727 637.701111,33.243912 
	C622.960205,23.592556 606.695862,18.388964 589.096252,16.868099 
	C558.412109,14.216542 530.679382,21.056036 506.867310,41.303719 
	C480.635498,63.608948 476.459595,99.365555 497.427399,126.254501 
	C511.055511,143.731155 529.541992,153.749161 550.984741,158.498566 
	C583.615967,165.726089 614.334534,161.195786 641.801941,141.697174 
	C660.385376,128.505127 671.239929,110.360710 671.193420,85.994019 
M455.920532,136.130478 
	C456.304230,132.839111 457.007202,129.549026 457.020447,126.256180 
	C457.114899,102.774147 457.068604,79.291542 457.067108,55.809124 
	C457.066986,54.023861 457.067108,52.238598 457.067108,50.208458 
	C451.138275,50.208458 445.756470,50.208458 439.708252,50.208458 
	C439.708252,54.202152 439.708252,57.898705 439.708252,63.034046 
	C437.783051,60.497540 436.816742,59.228149 435.854401,57.955799 
	C432.503540,53.525558 428.186218,50.691807 422.641937,49.761013 
	C408.009338,47.304436 395.687531,53.444069 389.526093,66.953247 
	C383.738708,79.642441 383.439117,92.858482 388.330414,105.844330 
	C393.984375,120.854942 409.640717,128.740585 424.822815,123.776146 
	C430.099609,122.050667 434.455353,117.508331 439.648987,113.968117 
	C439.340546,119.934830 439.634583,126.571304 438.384064,132.902710 
	C437.813812,135.789932 434.664001,138.914825 431.870514,140.477295 
	C423.084808,145.391388 412.016296,143.103928 404.998962,135.746399 
	C404.181946,134.889786 402.713745,133.703568 401.916504,133.935974 
	C397.388489,135.256104 392.972687,136.961166 388.298492,138.613098 
	C391.467041,145.958893 396.305237,150.276962 402.713715,152.855286 
	C413.777466,157.306610 425.055084,157.515045 436.453339,154.205780 
	C445.653473,151.534698 452.326263,146.054138 455.920532,136.130478 
M324.011505,118.506760 
	C337.051361,105.634888 336.710327,75.312325 327.059906,61.860657 
	C315.154572,45.265961 294.394562,44.737675 281.768890,60.784683 
	C281.436157,61.207581 280.795258,61.388050 279.521423,62.140125 
	C279.521423,57.674564 279.521423,53.948124 279.521423,50.230595 
	C273.512146,50.230595 268.110992,50.230595 262.225647,50.230595 
	C262.225647,52.707340 262.225525,54.836205 262.225647,56.965069 
	C262.227081,85.095116 262.229828,113.225166 262.229584,141.355209 
	C262.229462,155.344162 262.224213,155.250641 276.265625,154.833801 
	C279.339752,154.742538 280.279114,153.755356 280.235687,150.754639 
	C280.091339,140.769699 280.165833,130.781387 280.187469,120.794449 
	C280.190857,119.219933 280.354950,117.645760 280.444733,116.071419 
	C286.079437,122.961464 292.456604,127.366814 301.385590,127.459793 
	C309.926880,127.548729 317.468292,125.321022 324.011505,118.506760 
M361.445831,49.888195 
	C357.871735,49.888195 354.297668,49.888195 351.006470,49.888195 
	C350.651917,51.020557 350.470245,51.330589 350.469666,51.640961 
	C350.425079,75.261803 350.436981,98.882889 350.311401,122.503258 
	C350.295135,125.558815 351.998993,126.184776 354.287964,126.089058 
	C358.988708,125.892464 363.679962,125.468590 367.943237,125.168655 
	C367.943237,99.932190 367.943237,75.082870 367.943237,49.887375 
	C365.701813,49.887375 364.057251,49.887375 361.445831,49.888195 
M349.848022,33.309715 
	C350.626495,34.368866 351.275787,35.561047 352.205750,36.464218 
	C356.291168,40.431961 361.680206,40.619320 366.146118,37.054150 
	C369.776947,34.155647 370.931702,29.357227 368.938293,25.451536 
	C366.634735,20.938148 360.671692,18.755703 355.620880,20.577414 
	C350.681793,22.358829 348.647827,26.370829 349.848022,33.309715 
z"/>
<path fill="#3E67E2" opacity="1.000000" stroke="none" 
	d="
M671.276123,86.412186 
	C671.239929,110.360710 660.385376,128.505127 641.801941,141.697174 
	C614.334534,161.195786 583.615967,165.726089 550.984741,158.498566 
	C529.541992,153.749161 511.055511,143.731155 497.427399,126.254501 
	C476.459595,99.365555 480.635498,63.608948 506.867310,41.303719 
	C530.679382,21.056036 558.412109,14.216542 589.096252,16.868099 
	C606.695862,18.388964 622.960205,23.592556 637.701111,33.243912 
	C656.777222,45.733727 669.138550,62.627930 671.276123,86.412186 
M623.529297,48.881912 
	C611.209290,41.776836 597.965027,38.266953 583.730225,37.511909 
	C561.740662,36.345528 541.324158,40.567577 523.730347,54.287788 
	C509.984528,65.007179 502.319458,78.866638 506.055450,96.897377 
	C509.053040,111.364479 518.578796,121.120308 530.836304,128.464066 
	C547.881409,138.676117 566.546570,141.445480 586.050964,140.126846 
	C603.228027,138.965561 619.026428,133.766022 632.410461,122.806358 
	C645.777771,111.860344 653.024353,97.949463 649.026367,80.214211 
	C645.825378,66.014397 636.264893,56.513020 623.529297,48.881912 
z"/>
<path fill="#3D65E0" opacity="1.000000" stroke="none" 
	d="
M455.817383,136.521393 
	C452.326263,146.054138 445.653473,151.534698 436.453339,154.205780 
	C425.055084,157.515045 413.777466,157.306610 402.713715,152.855286 
	C396.305237,150.276962 391.467041,145.958893 388.298492,138.613098 
	C392.972687,136.961166 397.388489,135.256104 401.916504,133.935974 
	C402.713745,133.703568 404.181946,134.889786 404.998962,135.746399 
	C412.016296,143.103928 423.084808,145.391388 431.870514,140.477295 
	C434.664001,138.914825 437.813812,135.789932 438.384064,132.902710 
	C439.634583,126.571304 439.340546,119.934830 439.648987,113.968117 
	C434.455353,117.508331 430.099609,122.050667 424.822815,123.776146 
	C409.640717,128.740585 393.984375,120.854942 388.330414,105.844330 
	C383.439117,92.858482 383.738708,79.642441 389.526093,66.953247 
	C395.687531,53.444069 408.009338,47.304436 422.641937,49.761013 
	C428.186218,50.691807 432.503540,53.525558 435.854401,57.955799 
	C436.816742,59.228149 437.783051,60.497540 439.708252,63.034046 
	C439.708252,57.898705 439.708252,54.202152 439.708252,50.208458 
	C445.756470,50.208458 451.138275,50.208458 457.067108,50.208458 
	C457.067108,52.238598 457.066986,54.023861 457.067108,55.809124 
	C457.068604,79.291542 457.114899,102.774147 457.020447,126.256180 
	C457.007202,129.549026 456.304230,132.839111 455.817383,136.521393 
M421.511963,111.111992 
	C428.812317,110.905853 434.547424,107.886742 437.234894,100.949989 
	C440.788025,91.778862 440.799744,82.370132 436.702637,73.328522 
	C433.952087,67.258530 428.998016,63.880035 422.142059,63.755783 
	C415.159576,63.629242 410.001343,66.679924 406.761200,72.853447 
	C403.213989,79.611923 402.937683,86.798943 403.988556,94.195152 
	C405.385315,104.025818 410.764099,109.559814 421.511963,111.111992 
z"/>
<path fill="#3E66E0" opacity="1.000000" stroke="none" 
	d="
M323.761871,118.760651 
	C317.468292,125.321022 309.926880,127.548729 301.385590,127.459793 
	C292.456604,127.366814 286.079437,122.961464 280.444733,116.071419 
	C280.354950,117.645760 280.190857,119.219933 280.187469,120.794449 
	C280.165833,130.781387 280.091339,140.769699 280.235687,150.754639 
	C280.279114,153.755356 279.339752,154.742538 276.265625,154.833801 
	C262.224213,155.250641 262.229462,155.344162 262.229584,141.355209 
	C262.229828,113.225166 262.227081,85.095116 262.225647,56.965069 
	C262.225525,54.836205 262.225647,52.707340 262.225647,50.230595 
	C268.110992,50.230595 273.512146,50.230595 279.521423,50.230595 
	C279.521423,53.948124 279.521423,57.674564 279.521423,62.140125 
	C280.795258,61.388050 281.436157,61.207581 281.768890,60.784683 
	C294.394562,44.737675 315.154572,45.265961 327.059906,61.860657 
	C336.710327,75.312325 337.051361,105.634888 323.761871,118.760651 
M313.394409,101.641533 
	C316.766876,92.329018 316.754517,82.992592 312.967560,73.867256 
	C310.493713,67.906036 305.888214,64.296265 299.224060,63.827919 
	C292.713501,63.370384 287.488495,65.656693 283.888977,71.239853 
	C278.158112,80.128922 278.307739,97.554871 284.457672,106.075966 
	C288.310730,111.414604 295.480133,115.488480 300.476410,113.553635 
	C306.023560,111.405457 310.919769,108.372231 313.394409,101.641533 
z"/>
<path fill="#3C65E1" opacity="1.000000" stroke="none" 
	d="
M225.087112,124.935333 
	C224.913513,121.695633 224.739914,118.455933 224.527847,114.498375 
	C223.489212,115.411438 222.884109,115.713112 222.632111,116.198219 
	C213.895020,133.017258 186.006042,130.249695 177.108231,114.025246 
	C167.659103,96.795555 167.522339,79.223518 177.441635,62.211815 
	C183.826752,51.261265 198.338623,46.027725 210.126877,50.466785 
	C215.262131,52.400547 219.467010,56.804943 224.394211,60.299934 
	C224.394211,52.147934 224.394211,43.023663 224.847015,33.285431 
	C225.699097,30.650696 226.098373,28.629913 226.514053,26.526144 
	C230.710037,26.060108 234.842682,25.601107 238.975327,25.142105 
	C239.409149,25.094913 239.842987,25.047722 240.617569,25.536926 
	C240.971146,57.270615 240.922913,88.468193 241.069122,119.664864 
	C241.088821,123.865089 239.601929,125.335991 235.537323,125.034431 
	C232.070557,124.777229 228.571747,124.951775 225.087112,124.935333 
M214.669373,65.523865 
	C206.593002,62.308838 199.303513,63.580830 194.504272,69.042625 
	C184.800262,80.086319 187.585495,103.838074 199.571198,112.252014 
	C203.035004,114.683601 210.422668,114.200958 214.066147,111.763237 
	C223.865646,105.206764 225.292435,95.391479 224.610687,84.883049 
	C224.125427,77.403481 222.245529,70.362625 214.669373,65.523865 
z"/>
<path fill="#3B64E1" opacity="1.000000" stroke="none" 
	d="
M124.007584,64.120079 
	C109.518890,64.669662 104.836205,69.574791 104.846054,84.167679 
	C104.854263,96.327827 104.722710,108.490013 104.917709,120.647049 
	C104.984550,124.814186 103.332481,126.263092 99.361305,126.163818 
	C84.562492,125.793839 87.043617,128.373688 86.945580,113.894600 
	C86.814758,94.572502 86.914162,75.248848 86.914665,55.925858 
	C86.914711,54.128372 86.914680,52.330887 86.914680,50.218620 
	C92.643616,50.218620 97.882332,50.218620 103.607376,50.218620 
	C103.607376,54.206394 103.607376,58.130394 103.607376,63.279915 
	C105.112534,61.677170 105.880753,61.022659 106.451469,60.226562 
	C113.512154,50.377560 124.004776,46.822544 135.892838,50.288170 
	C145.977341,53.228012 152.845779,61.859432 153.145218,73.486000 
	C153.565399,89.799980 153.386368,106.132195 153.196701,122.453499 
	C153.182373,123.686806 151.208786,125.653687 149.853699,125.951981 
	C147.313705,126.511108 144.559601,126.097641 141.384293,125.675285 
	C139.269806,123.841232 137.665604,122.420609 136.061386,120.999977 
	C135.989990,119.278198 135.918610,117.556419 136.340744,115.322281 
	C137.089096,114.606514 137.569885,114.399261 137.566498,114.200264 
	C137.337463,100.778313 137.130356,87.354980 136.680618,73.939842 
	C136.647339,72.947311 134.844467,72.014107 133.864273,71.053322 
	C133.625916,70.799240 133.387558,70.545158 133.087616,69.684799 
	C132.493652,68.565170 131.961273,68.051804 131.428879,67.538445 
	C131.548447,67.340675 131.668015,67.142906 131.698669,66.868179 
	C129.075684,65.900841 126.541634,65.010460 124.007584,64.120079 
z"/>
<path fill="#3D65E1" opacity="1.000000" stroke="none" 
	d="
M44.017570,125.931854 
	C39.588585,125.747269 35.159603,125.562683 30.366009,124.694305 
	C29.999092,103.356461 29.997557,82.702431 29.994129,62.048393 
	C29.992603,52.861649 29.992313,52.875389 38.893417,51.940929 
	C40.341064,51.788956 41.769531,51.454262 44.018559,51.062714 
	C44.018559,53.200459 43.675793,55.052879 44.106766,56.703251 
	C44.626122,58.692104 45.802547,60.509373 46.694542,62.400917 
	C47.780842,60.582527 48.867142,58.764137 49.953438,56.945747 
	C49.953434,56.945744 49.998192,57.000584 50.320076,56.965137 
	C51.754734,55.606434 52.867512,54.283176 53.980293,52.959923 
	C53.980293,52.959923 53.996166,53.003838 54.373192,52.962791 
	C58.169994,51.693256 61.589775,50.464764 65.009552,49.236271 
	C66.439529,49.404381 67.869507,49.572495 69.652863,50.328354 
	C70.010185,52.725124 70.250656,54.572536 69.964645,56.334496 
	C69.491959,59.246422 68.679642,62.103218 68.010437,64.983246 
	C66.281944,65.016220 64.553444,65.049194 62.151459,64.735809 
	C59.295498,65.193443 57.113029,65.997444 54.930561,66.801453 
	C54.930561,66.801453 54.883427,66.960167 54.441631,66.954422 
	C53.085052,67.730972 52.170269,68.513268 51.255486,69.295563 
	C51.255486,69.295563 51.038963,69.093330 50.782425,69.118637 
	C45.180210,71.168030 45.236668,76.200729 45.149689,80.382843 
	C44.839092,95.317184 45.092178,110.263245 45.131969,125.204872 
	C45.131969,125.204872 45.086639,125.119553 44.887177,125.165001 
	C44.464329,125.450920 44.240952,125.691391 44.017570,125.931854 
z"/>
<path fill="#3F67E0" opacity="1.000000" stroke="none" 
	d="
M361.929260,49.887787 
	C364.057251,49.887375 365.701813,49.887375 367.943237,49.887375 
	C367.943237,75.082870 367.943237,99.932190 367.943237,125.168655 
	C363.679962,125.468590 358.988708,125.892464 354.287964,126.089058 
	C351.998993,126.184776 350.295135,125.558815 350.311401,122.503258 
	C350.436981,98.882889 350.425079,75.261803 350.469666,51.640961 
	C350.470245,51.330589 350.651917,51.020557 351.006470,49.888195 
	C354.297668,49.888195 357.871735,49.888195 361.929260,49.887787 
z"/>
<path fill="#4268DF" opacity="1.000000" stroke="none" 
	d="
M349.686523,32.955627 
	C348.647827,26.370829 350.681793,22.358829 355.620880,20.577414 
	C360.671692,18.755703 366.634735,20.938148 368.938293,25.451536 
	C370.931702,29.357227 369.776947,34.155647 366.146118,37.054150 
	C361.680206,40.619320 356.291168,40.431961 352.205750,36.464218 
	C351.275787,35.561047 350.626495,34.368866 349.686523,32.955627 
z"/>
<path fill="#5070D1" opacity="1.000000" stroke="none" 
	d="
M49.657562,57.118298 
	C48.867142,58.764137 47.780842,60.582527 46.694542,62.400917 
	C45.802547,60.509373 44.626122,58.692104 44.106766,56.703251 
	C43.675793,55.052879 44.018559,53.200459 44.018559,51.062714 
	C41.769531,51.454262 40.341064,51.788956 38.893417,51.940929 
	C29.992313,52.875389 29.992603,52.861649 29.994129,62.048393 
	C29.997557,82.702431 29.999092,103.356461 30.000719,124.474854 
	C29.517405,124.384674 28.613615,123.830811 28.612730,123.275505 
	C28.574564,99.333954 28.615236,75.392265 28.663223,51.450626 
	C28.663837,51.145035 28.882380,50.839878 29.132893,50.185066 
	C34.543533,50.185066 40.084671,50.185066 46.180748,50.185066 
	C46.180748,53.446289 46.180748,56.519016 46.180748,61.046844 
	C47.847523,59.078747 48.604603,58.184799 49.657562,57.118298 
z"/>
<path fill="#4767C4" opacity="1.000000" stroke="none" 
	d="
M225.240417,125.346054 
	C228.571747,124.951775 232.070557,124.777229 235.537323,125.034431 
	C239.601929,125.335991 241.088821,123.865089 241.069122,119.664864 
	C240.922913,88.468193 240.971146,57.270615 240.937393,25.615906 
	C241.351013,26.081879 242.163574,27.004503 242.165436,27.928764 
	C242.230881,60.383110 242.220123,92.837616 242.220123,125.756790 
	C236.497345,125.756790 230.945526,125.756790 225.240417,125.346054 
z"/>
<path fill="#4B6DCE" opacity="1.000000" stroke="none" 
	d="
M45.454166,125.237679 
	C45.092178,110.263245 44.839092,95.317184 45.149689,80.382843 
	C45.236668,76.200729 45.180210,71.168030 50.904114,69.203110 
	C47.845936,73.634811 46.587360,78.548943 46.697151,84.139526 
	C46.938992,96.454002 46.803505,108.776703 46.727932,121.095474 
	C46.719379,122.489037 46.108135,123.878906 45.454166,125.237679 
z"/>
<path fill="#456BD3" opacity="1.000000" stroke="none" 
	d="
M133.925629,71.451981 
	C134.844467,72.014107 136.647339,72.947311 136.680618,73.939842 
	C137.130356,87.354980 137.337463,100.778313 137.566498,114.200264 
	C137.569885,114.399261 137.089096,114.606514 136.442230,114.901657 
	C135.957550,105.031189 136.030228,95.063446 135.696823,85.109299 
	C135.548325,80.675636 134.582077,76.269348 133.925629,71.451981 
z"/>
<path fill="#4B6DCE" opacity="1.000000" stroke="none" 
	d="
M68.313644,65.184937 
	C68.679642,62.103218 69.491959,59.246422 69.964645,56.334496 
	C70.250656,54.572536 70.010185,52.725124 70.004120,50.451191 
	C74.745033,53.824158 71.024231,59.010864 71.986122,63.468159 
	C72.068008,63.847614 69.795578,64.735138 68.313644,65.184937 
z"/>
<path fill="#4767C4" opacity="1.000000" stroke="none" 
	d="
M238.516815,25.060730 
	C234.842682,25.601107 230.710037,26.060108 226.514053,26.526144 
	C226.098373,28.629913 225.699097,30.650696 224.989471,32.839825 
	C224.625275,31.024942 224.571457,29.041714 224.702850,26.482056 
	C224.888092,25.905624 224.910294,25.422668 224.910294,25.422668 
	C229.292969,25.274897 233.675629,25.127123 238.516815,25.060730 
z"/>
<path fill="#5070D1" opacity="1.000000" stroke="none" 
	d="
M64.622314,49.138184 
	C61.589775,50.464764 58.169994,51.693256 54.354050,52.949318 
	C57.383621,51.664619 60.809353,50.352360 64.622314,49.138184 
z"/>
<path fill="#456BD3" opacity="1.000000" stroke="none" 
	d="
M135.951904,121.397614 
	C137.665604,122.420609 139.269806,123.841232 140.932495,125.601486 
	C137.913574,126.249565 135.437836,125.810867 135.951904,121.397614 
z"/>
<path fill="#456BD3" opacity="1.000000" stroke="none" 
	d="
M124.315216,64.276001 
	C126.541634,65.010460 129.075684,65.900841 131.527588,67.168533 
	C129.171249,66.507866 126.897049,65.469902 124.315216,64.276001 
z"/>
<path fill="#4B6DCE" opacity="1.000000" stroke="none" 
	d="
M55.299995,66.787445 
	C57.113029,65.997444 59.295498,65.193443 61.727402,64.648209 
	C59.874367,65.529129 57.771896,66.151283 55.299995,66.787445 
z"/>
<path fill="#5070D1" opacity="1.000000" stroke="none" 
	d="
M53.652359,53.013718 
	C52.867512,54.283176 51.754734,55.606434 50.292179,56.943176 
	C51.069740,55.660278 52.197083,54.363895 53.652359,53.013718 
z"/>
<path fill="#4B6DCE" opacity="1.000000" stroke="none" 
	d="
M51.555252,69.214691 
	C52.170269,68.513268 53.085052,67.730972 54.365776,66.921272 
	C53.772816,67.640518 52.813915,68.387177 51.555252,69.214691 
z"/>
<path fill="#456BD3" opacity="1.000000" stroke="none" 
	d="
M131.461609,67.821411 
	C131.961273,68.051804 132.493652,68.565170 133.050568,69.416824 
	C132.548157,69.204872 132.021240,68.654617 131.461609,67.821411 
z"/>
<path fill="#3C65E1" opacity="1.000000" stroke="none" 
	d="
M224.738327,25.444160 
	C224.910294,25.422668 224.888092,25.905624 224.854065,26.147280 
	C224.697708,26.194183 224.551437,26.009317 224.464905,25.799782 
	C224.430527,25.716570 224.528580,25.578663 224.738327,25.444160 
z"/>
<path fill="#4B6DCE" opacity="1.000000" stroke="none" 
	d="
M44.291107,125.952812 
	C44.240952,125.691391 44.464329,125.450920 44.935402,125.162247 
	C44.976944,125.400612 44.770794,125.687195 44.291107,125.952812 
z"/>
<path fill="#FAFCFE" opacity="1.000000" stroke="none" 
	d="
M623.843018,49.069839 
	C636.264893,56.513020 645.825378,66.014397 649.026367,80.214211 
	C653.024353,97.949463 645.777771,111.860344 632.410461,122.806358 
	C619.026428,133.766022 603.228027,138.965561 586.050964,140.126846 
	C566.546570,141.445480 547.881409,138.676117 530.836304,128.464066 
	C518.578796,121.120308 509.053040,111.364479 506.055450,96.897377 
	C502.319458,78.866638 509.984528,65.007179 523.730347,54.287788 
	C541.324158,40.567577 561.740662,36.345528 583.730225,37.511909 
	C597.965027,38.266953 611.209290,41.776836 623.843018,49.069839 
M627.637146,77.735031 
	C626.911194,77.335846 626.192871,76.921913 625.458008,76.539825 
	C620.200439,73.806160 614.308777,74.602074 609.857666,78.640137 
	C605.591370,82.510429 603.964600,88.656052 605.916870,93.526390 
	C608.192139,99.202293 613.481750,102.854042 619.348083,102.798813 
	C624.749573,102.747948 630.503540,99.005615 632.310547,93.575874 
	C634.245544,87.761581 632.840271,82.465378 627.637146,77.735031 
M549.957031,88.566757 
	C549.284180,80.295380 543.219971,74.735992 535.209900,75.047371 
	C528.247559,75.318008 522.179260,81.725807 522.172302,88.814423 
	C522.165222,96.023857 528.059326,102.409378 535.073486,102.791199 
	C542.990540,103.222176 549.249268,97.593834 549.957031,88.566757 
z"/>
<path fill="#F9FBFE" opacity="1.000000" stroke="none" 
	d="
M421.083984,111.098381 
	C410.764099,109.559814 405.385315,104.025818 403.988556,94.195152 
	C402.937683,86.798943 403.213989,79.611923 406.761200,72.853447 
	C410.001343,66.679924 415.159576,63.629242 422.142059,63.755783 
	C428.998016,63.880035 433.952087,67.258530 436.702637,73.328522 
	C440.799744,82.370132 440.788025,91.778862 437.234894,100.949989 
	C434.547424,107.886742 428.812317,110.905853 421.083984,111.098381 
z"/>
<path fill="#F9FBFE" opacity="1.000000" stroke="none" 
	d="
M313.253235,102.003189 
	C310.919769,108.372231 306.023560,111.405457 300.476410,113.553635 
	C295.480133,115.488480 288.310730,111.414604 284.457672,106.075966 
	C278.307739,97.554871 278.158112,80.128922 283.888977,71.239853 
	C287.488495,65.656693 292.713501,63.370384 299.224060,63.827919 
	C305.888214,64.296265 310.493713,67.906036 312.967560,73.867256 
	C316.754517,82.992592 316.766876,92.329018 313.253235,102.003189 
z"/>
<path fill="#F8FBFE" opacity="1.000000" stroke="none" 
	d="
M214.999329,65.718918 
	C222.245529,70.362625 224.125427,77.403481 224.610687,84.883049 
	C225.292435,95.391479 223.865646,105.206764 214.066147,111.763237 
	C210.422668,114.200958 203.035004,114.683601 199.571198,112.252014 
	C187.585495,103.838074 184.800262,80.086319 194.504272,69.042625 
	C199.303513,63.580830 206.593002,62.308838 214.999329,65.718918 
z"/>
<path fill="#426AE1" opacity="1.000000" stroke="none" 
	d="
M627.920410,77.977509 
	C632.840271,82.465378 634.245544,87.761581 632.310547,93.575874 
	C630.503540,99.005615 624.749573,102.747948 619.348083,102.798813 
	C613.481750,102.854042 608.192139,99.202293 605.916870,93.526390 
	C603.964600,88.656052 605.591370,82.510429 609.857666,78.640137 
	C614.308777,74.602074 620.200439,73.806160 625.458008,76.539825 
	C626.192871,76.921913 626.911194,77.335846 627.920410,77.977509 
z"/>
<path fill="#426AE1" opacity="1.000000" stroke="none" 
	d="
M549.957031,88.986778 
	C549.249268,97.593834 542.990540,103.222176 535.073486,102.791199 
	C528.059326,102.409378 522.165222,96.023857 522.172302,88.814423 
	C522.179260,81.725807 528.247559,75.318008 535.209900,75.047371 
	C543.219971,74.735992 549.284180,80.295380 549.957031,88.986778 
z"/>
</svg>